<svg width="25" height="24" viewBox="0 0 25 24" fill="none" xmlns="http://www.w3.org/2000/svg">
<g id="icon / jam-icons / outline &#38; logos / arrow-right">
<path id="Vector" d="M16.2526 10.657L12.3026 6.70704C12.1205 6.51844 12.0197 6.26584 12.022 6.00364C12.0242 5.74144 12.1294 5.49063 12.3148 5.30522C12.5002 5.11981 12.751 5.01465 13.0132 5.01237C13.2754 5.01009 13.528 5.11088 13.7166 5.29304L19.3736 10.95C19.4668 11.0427 19.5408 11.1529 19.5912 11.2742C19.6417 11.3955 19.6677 11.5256 19.6677 11.657C19.6677 11.7884 19.6417 11.9186 19.5912 12.0399C19.5408 12.1612 19.4668 12.2714 19.3736 12.364L13.7166 18.021C13.6244 18.1166 13.514 18.1927 13.392 18.2451C13.27 18.2976 13.1388 18.3251 13.006 18.3263C12.8732 18.3274 12.7416 18.3021 12.6187 18.2519C12.4958 18.2016 12.3841 18.1273 12.2902 18.0334C12.1963 17.9395 12.1221 17.8279 12.0718 17.705C12.0215 17.5821 11.9962 17.4504 11.9974 17.3176C11.9985 17.1849 12.0261 17.0536 12.0785 16.9316C12.1309 16.8096 12.2071 16.6993 12.3026 16.607L16.2526 12.657H6.66663C6.40141 12.657 6.14706 12.5517 5.95952 12.3641C5.77198 12.1766 5.66663 11.9223 5.66663 11.657C5.66663 11.3918 5.77198 11.1375 5.95952 10.9499C6.14706 10.7624 6.40141 10.657 6.66663 10.657H16.2526Z" fill="#E2E8F0"/>
</g>
</svg>
